# File created by Blade
# Date/Time:  Wed Sep 24 19:25:39 2014
# Frame Rate: 120.000 fps
#------------------------------------------------------
:FULLY-SPECIFIED
:DEGREES
3053
root -15.821520 32.264763 -4.456203 10.968009 56.563071 -3.117596
Spine -18.446132 -1.421186 17.712659
Head 10.731921 -5.184767 -3.989287
LeftShoulder -11.977459 22.083763 7.764780
LeftArm 25.448920 18.037017 -69.576027
LeftForeArm 18.296928 -0.000000 57.998196
LeftHand -27.906788 0.000000 -1.172665
LeftHandThumb1 -26.253704 0.000000 33.147579
RightShoulder -20.788905 8.661070 -33.198457
RightArm -20.560162 33.371856 36.273656
RightForeArm 11.020121 -0.000000 126.191012
RightHand -15.056212 0.000000 -1.410722
RightHandThumb1 -24.326973 -0.000000 -32.862282
LeftUpLeg -29.395868 60.438064 13.093272
LeftLeg 105.700844 -0.000000 -0.000000
LeftFoot 35.799985 21.827695 -24.299808
LeftToeBase 27.721693 -0.000000 -0.000000
RightUpLeg -12.663240 -10.900873 13.827271
RightLeg 0.680371 -0.000000 -0.000000
RightFoot -9.445182 -28.235068 -6.495761
RightToeBase 0.137086 -0.000000 -0.000000
3054
root -15.824852 32.266070 -4.472492 11.036881 56.475556 -3.116872
Spine -18.441980 -1.260278 17.744005
Head 10.630407 -5.175185 -3.990281
LeftShoulder -12.077511 22.225783 7.661480
LeftArm 25.381944 17.958556 -69.576389
LeftForeArm 17.987058 -0.000000 58.165189
LeftHand -27.883170 -0.000000 -1.253541
LeftHandThumb1 -26.253704 0.000000 33.147579
RightShoulder -20.707540 8.735222 -33.187582
RightArm -20.472871 33.392962 36.332651
RightForeArm 11.136059 -0.000000 126.192816
RightHand -15.039709 0.000000 -1.307540
RightHandThumb1 -24.326973 -0.000000 -32.862282
LeftUpLeg -29.312627 60.366398 12.981296
LeftLeg 105.464671 -0.000000 -0.000000
LeftFoot 35.717611 22.187044 -24.367648
LeftToeBase 28.187539 -0.000000 -0.000000
RightUpLeg -12.758315 -10.939519 13.832435
RightLeg 0.706334 -0.000000 -0.000000
RightFoot -9.496857 -28.092132 -6.445925
RightToeBase 0.133422 -0.000000 -0.000000
3055
root -15.828967 32.266866 -4.489666 11.107019 56.404296 -3.124266
Spine -18.436779 -1.108999 17.782101
Head 10.485994 -5.188226 -3.988044
LeftShoulder -12.179149 22.366205 7.567981
LeftArm 25.339172 17.913122 -69.585446
LeftForeArm 17.680444 -0.000000 58.265041
LeftHand -27.907459 -0.000000 -1.265948
LeftHandThumb1 -26.253704 0.000000 33.147579
RightShoulder -20.655167 8.801495 -33.201231
RightArm -20.321771 33.344504 36.467572
RightForeArm 11.009348 -0.000000 126.182740
RightHand -15.038696 0.000000 -1.362876
RightHandThumb1 -24.326973 -0.000000 -32.862282
LeftUpLeg -29.354407 60.313456 12.776968
LeftLeg 105.301744 -0.000000 -0.000000
LeftFoot 35.514314 22.435816 -24.465884
LeftToeBase 28.479642 -0.000000 -0.000000
RightUpLeg -12.860843 -10.951739 13.840257
RightLeg 0.729967 -0.000000 -0.000000
RightFoot -9.523116 -28.004504 -6.438752
RightToeBase 0.172327 -0.000000 -0.000000
3056
root -15.832613 32.267044 -4.506817 11.146399 56.352351 -3.143898
Spine -18.404277 -0.978637 17.834691
Head 10.336354 -5.194218 -3.985015
LeftShoulder -12.250848 22.486349 7.483843
LeftArm 25.268123 17.833532 -69.645080
LeftForeArm 17.513567 -0.000000 58.299700
LeftHand -27.808415 -0.000000 -1.448906
LeftHandThumb1 -26.253704 0.000000 33.147579
RightShoulder -20.627265 8.869735 -33.222401
RightArm -20.174623 33.378356 36.592050
RightForeArm 11.130700 -0.000000 126.174849
RightHand -15.039952 -0.000000 -1.209009
RightHandThumb1 -24.326973 -0.000000 -32.862282
LeftUpLeg -29.424463 60.257602 12.564384
LeftLeg 105.167190 -0.000000 -0.000000
LeftFoot 35.339874 22.673285 -24.793770
LeftToeBase 27.779658 -0.000000 -0.000000
RightUpLeg -12.940907 -10.949326 13.844101
RightLeg 0.744395 -0.000000 -0.000000
RightFoot -9.562777 -27.947341 -6.397843
RightToeBase 0.224571 -0.000000 -0.000000
3057
root -15.839266 32.267030 -4.523261 11.173995 56.313465 -3.190499
Spine -18.376643 -0.861738 17.903657
Head 10.170623 -5.208483 -3.989096
LeftShoulder -12.320125 22.579440 7.416580
LeftArm 25.184746 17.797414 -69.712070
LeftForeArm 17.419788 -0.000000 58.280846
LeftHand -27.804987 -0.000000 -1.483957
LeftHandThumb1 -26.253704 0.000000 33.147579
RightShoulder -20.593801 8.928178 -33.250379
RightArm -20.039044 33.344807 36.715252
RightForeArm 11.080518 -0.000000 126.169070
RightHand -15.063959 -0.000000 -1.229935
RightHandThumb1 -24.326973 -0.000000 -32.862282
LeftUpLeg -29.520327 60.154569 12.351845
LeftLeg 105.050698 -0.000000 -0.000000
LeftFoot 35.159881 22.898510 -24.968014
LeftToeBase 27.734910 -0.000000 -0.000000
RightUpLeg -13.033897 -10.901051 13.860851
RightLeg 0.758743 -0.000000 -0.000000
RightFoot -9.599294 -27.925139 -6.317913
RightToeBase 0.273653 -0.000000 -0.000000
3058
root -15.848197 32.266059 -4.540724 11.185766 56.304346 -3.241200
Spine -18.326545 -0.765955 17.974703
Head 10.001660 -5.241534 -3.995613
LeftShoulder -12.350458 22.667484 7.369009
LeftArm 25.091520 17.786018 -69.780445
LeftForeArm 17.287458 -0.000000 58.267262
LeftHand -27.874962 -0.000000 -1.592393
LeftHandThumb1 -26.253704 0.000000 33.147579
RightShoulder -20.553721 8.990199 -33.283000
RightArm -19.946231 33.353732 36.834205
RightForeArm 11.131392 -0.000000 126.187194
RightHand -15.033075 -0.000000 -1.211607
RightHandThumb1 -24.326973 -0.000000 -32.862282
LeftUpLeg -29.647676 60.015356 12.133806
LeftLeg 104.973839 -0.000000 -0.000000
LeftFoot 35.007966 23.154371 -25.113362
LeftToeBase 27.689744 -0.000000 -0.000000
RightUpLeg -13.106749 -10.836480 13.877082
RightLeg 0.745920 -0.000000 -0.000000
RightFoot -9.601315 -27.899164 -6.277163
RightToeBase -0.003977 -0.000000 0.000000
3059
root -15.852540 32.265744 -4.555848 11.211055 56.257256 -3.262491
Spine -18.275439 -0.647626 18.004464
Head 9.869022 -5.279665 -3.977940
LeftShoulder -12.388615 22.763677 7.323167
LeftArm 25.033160 17.827658 -69.793697
LeftForeArm 17.311797 -0.000000 58.161614
LeftHand -27.848862 -0.000000 -1.312210
LeftHandThumb1 -26.253704 0.000000 33.147579
RightShoulder -20.509448 9.026935 -33.276853
RightArm -19.888506 33.348745 36.874312
RightForeArm 11.324596 0.000000 126.221687
RightHand -15.018537 0.000000 -1.141107
RightHandThumb1 -24.326973 -0.000000 -32.862282
LeftUpLeg -29.668481 59.883415 11.970545
LeftLeg 104.875837 -0.000000 -0.000000
LeftFoot 34.935003 23.351686 -25.108031
LeftToeBase 27.662806 -0.000000 -0.000000
RightUpLeg -13.151353 -10.742688 13.861819
RightLeg 0.728288 -0.000000 -0.000000
RightFoot -9.623603 -27.924690 -6.228019
RightToeBase 0.074174 -0.000000 -0.000000
3060
root -15.860667 32.264780 -4.570889 11.203542 56.222144 -3.325444
Spine -18.212624 -0.526722 18.052148
Head 9.722803 -5.334383 -3.946286
LeftShoulder -12.391416 22.854057 7.317660
LeftArm 24.955628 17.847577 -69.878924
LeftForeArm 17.426698 0.000000 58.060617
LeftHand -27.815208 -0.000000 -1.294897
LeftHandThumb1 -26.253704 0.000000 33.147579
RightShoulder -20.479821 9.045321 -33.277509
RightArm -19.811436 33.341494 36.945149
RightForeArm 11.313583 0.000000 126.237895
RightHand -14.985800 -0.000000 -1.096151
RightHandThumb1 -24.326973 -0.000000 -32.862282
LeftUpLeg -29.733028 59.724093 11.813509
LeftLeg 104.813582 -0.000000 -0.000000
LeftFoot 34.823638 23.609756 -25.362478
LeftToeBase 27.450370 -0.000000 -0.000000
RightUpLeg -13.205838 -10.652801 13.878551
RightLeg 0.712219 -0.000000 -0.000000
RightFoot -9.633262 -27.968370 -6.177252
RightToeBase 0.131739 -0.000000 -0.000000
3061
root -15.868555 32.262813 -4.584061 11.155293 56.198786 -3.417988
Spine -18.137143 -0.410181 18.115386
Head 9.581342 -5.413150 -3.922279
LeftShoulder -12.374020 22.909581 7.319556
LeftArm 24.866655 17.905302 -69.962919
LeftForeArm 17.591741 0.000000 57.940908
LeftHand -27.904127 -0.000000 -1.380014
LeftHandThumb1 -26.253704 0.000000 33.147579
RightShoulder -20.450793 9.067010 -33.293432
RightArm -19.758066 33.344902 36.997700
RightForeArm 11.360153 -0.000000 126.245017
RightHand -15.015134 -0.000000 -1.053295
RightHandThumb1 -24.326973 -0.000000 -32.862282
LeftUpLeg -29.779843 59.559734 11.703947
LeftLeg 104.780693 -0.000000 -0.000000
LeftFoot 34.702305 23.712560 -25.411026
LeftToeBase 27.387552 -0.000000 -0.000000
RightUpLeg -13.236158 -10.569614 13.910729
RightLeg 0.682211 -0.000000 -0.000000
RightFoot -9.661397 -27.991340 -6.055974
RightToeBase 0.127234 -0.000000 -0.000000
3062
root -15.873482 32.260864 -4.595804 11.092721 56.157779 -3.502061
Spine -18.041167 -0.302457 18.170827
Head 9.462434 -5.490622 -3.899010
LeftShoulder -12.381720 22.989076 7.295797
LeftArm 24.785397 18.019699 -69.978945
LeftForeArm 17.660330 -0.000000 57.881358
LeftHand -27.911333 -0.000000 -1.660710
LeftHandThumb1 -26.253704 0.000000 33.147579
RightShoulder -20.412238 9.097353 -33.303234
RightArm -19.738873 33.360875 37.018614
RightForeArm 11.506080 -0.000000 126.275406
RightHand -14.991094 -0.000000 -1.068540
RightHandThumb1 -24.326973 -0.000000 -32.862282
LeftUpLeg -29.755083 59.394659 11.643858
LeftLeg 104.745174 -0.000000 -0.000000
LeftFoot 34.636218 23.845395 -25.485456
LeftToeBase 27.224321 -0.000000 -0.000000
RightUpLeg -13.232866 -10.487101 13.931931
RightLeg 0.646380 -0.000000 -0.000000
RightFoot -9.654674 -28.045702 -6.057148
RightToeBase 0.172909 -0.000000 -0.000000
